<svg width="36" height="36" viewBox="0 0 36 36" fill="none" xmlns="http://www.w3.org/2000/svg">
<path d="M16.5 6.0001H6C5.20435 6.0001 4.44129 6.31617 3.87868 6.87878C3.31607 7.44138 3 8.20445 3 9.0001V30.0001C3 30.7957 3.31607 31.5588 3.87868 32.1214C4.44129 32.684 5.20435 33.0001 6 33.0001H27C27.7956 33.0001 28.5587 32.684 29.1213 32.1214C29.6839 31.5588 30 30.7957 30 30.0001V19.5001M27.75 3.7501C28.3467 3.15336 29.1561 2.81812 30 2.81812C30.8439 2.81812 31.6533 3.15336 32.25 3.7501C32.8467 4.34683 33.182 5.15618 33.182 6.0001C33.182 6.84401 32.8467 7.65336 32.25 8.2501L18 22.5001L12 24.0001L13.5 18.0001L27.75 3.7501Z" stroke="white" stroke-width="4" stroke-linecap="round" stroke-linejoin="round"/>
</svg>
